<svg display="none" width="0" height="0" version="1.1" xmlns="http://www.w3.org/2000/svg" xmlns:xlink="http://www.w3.org/1999/xlink">
  <defs>

  <symbol id="icon-arrow-down" viewBox="0 0 24 24" fill="none" xmlns="http://www.w3.org/2000/svg">
    <path fill-rule="evenodd" clip-rule="evenodd" d="M15.19 16.25L6.47 7.53l1.06-1.06 8.72 8.72V7h1.5v10.75H7v-1.5h8.19z"></path>
  </symbol>
  <symbol id="icon-arrow-left" viewBox="0 0 24 24" fill="none" xmlns="http://www.w3.org/2000/svg">
    <path fill-rule="evenodd" clip-rule="evenodd" d="M6.81 11.25l5.72-5.72-1.06-1.06L3.94 12l7.53 7.53 1.06-1.06-5.72-5.72H19v-1.5H6.81z"></path>
  </symbol>
  <symbol id="icon-arrow-right" viewBox="0 0 24 24" fill="none" xmlns="http://www.w3.org/2000/svg">
    <path fill-rule="evenodd" clip-rule="evenodd" d="M17.19 12.75H5v-1.5h12.19l-5.72-5.72 1.06-1.06L20.06 12l-7.53 7.53-1.06-1.06 5.72-5.72z"></path>
  </symbol>
  <symbol id="icon-briefcase" viewBox="0 0 24 24" fill="none" xmlns="http://www.w3.org/2000/svg">
    <path fill-rule="evenodd" clip-rule="evenodd" d="M10 2a3 3 0 0 0-3 3v1H4a3 3 0 0 0-3 3v10a3 3 0 0 0 3 3h16a3 3 0 0 0 3-3V9a3 3 0 0 0-3-3h-3V5a3 3 0 0 0-3-3h-4zm5 4V5a1 1 0 0 0-1-1h-4a1 1 0 0 0-1 1v1h6zM9 8h6v12H9V8zM7 8H4a1 1 0 0 0-1 1v10a1 1 0 0 0 1 1h3V8zm10 12V8h3a1 1 0 0 1 1 1v10a1 1 0 0 1-1 1h-3z"
     ></path>
  </symbol>
  <symbol id="icon-calender" viewBox="0 0 24 24" fill="none" xmlns="http://www.w3.org/2000/svg">
    <path fill-rule="evenodd" clip-rule="evenodd" d="M17 2a1 1 0 1 0-2 0v1H9V2a1 1 0 0 0-2 0v1H5a3 3 0 0 0-3 3v14a3 3 0 0 0 3 3h14a3 3 0 0 0 3-3V6a3 3 0 0 0-3-3h-2V2zm3 7V6a1 1 0 0 0-1-1h-2v1a1 1 0 1 1-2 0V5H9v1a1 1 0 0 1-2 0V5H5a1 1 0 0 0-1 1v3h16zM4 11h16v9a1 1 0 0 1-1 1H5a1 1 0 0 1-1-1v-9z"
     ></path>
  </symbol>
  <symbol id="icon-close" viewBox="0 0 24 24" fill="none" xmlns="http://www.w3.org/2000/svg">
    <path fill-rule="evenodd" clip-rule="evenodd" d="M18.707 6.707a1 1 0 0 0-1.414-1.414L12 10.586 6.707 5.293a1 1 0 0 0-1.414 1.414L10.586 12l-5.293 5.293a1 1 0 1 0 1.414 1.414L12 13.414l5.293 5.293a1 1 0 0 0 1.414-1.414L13.414 12l5.293-5.293z"></path>
  </symbol>
  <symbol id="icon-coffee" viewBox="0 0 24 24" fill="none" xmlns="http://www.w3.org/2000/svg">
    <path fill-rule="evenodd" clip-rule="evenodd" d="M7 1a1 1 0 0 0-2 0v3a1 1 0 0 0 2 0V1zM1 8a1 1 0 0 1 1-1h17a5 5 0 0 1 0 10 5 5 0 0 1-5 5H6a5 5 0 0 1-5-5V8zm21 4a3 3 0 0 1-3 3V9a3 3 0 0 1 3 3zm-5-3v8a3 3 0 0 1-3 3H6a3 3 0 0 1-3-3V9h14zm-7-9a1 1 0 0 1 1 1v3a1 1 0 1 1-2 0V1a1 1 0 0 1 1-1zm5 1a1 1 0 1 0-2 0v3a1 1 0 1 0 2 0V1z"
     ></path>
  </symbol>
  <symbol id="icon-mail" viewBox="0 0 24 24" fill="none" xmlns="http://www.w3.org/2000/svg">
    <path fill-rule="evenodd" clip-rule="evenodd" d="M3.107 5.554C3.272 5.227 3.612 5 4 5h16c.388 0 .728.227.893.554L12 11.779 3.107 5.554zM3 7.92V18c0 .548.452 1 1 1h16c.548 0 1-.452 1-1V7.92l-8.427 5.9a1 1 0 0 1-1.146 0L3 7.92zm20-1.903V18c0 1.652-1.348 3-3 3H4c-1.652 0-3-1.348-3-3V6c0-1.652 1.348-3 3-3h16a3.006 3.006 0 0 1 3 3.018z"
     ></path>
  </symbol>
  <symbol id="icon-map-pin" viewBox="0 0 24 24" fill="none" xmlns="http://www.w3.org/2000/svg">
    <path fill-rule="evenodd" clip-rule="evenodd" d="M4 10a8 8 0 1 1 16 0c0 3.098-2.016 6.104-4.226 8.437A29.412 29.412 0 0 1 12 21.773a29.419 29.419 0 0 1-3.774-3.335C6.016 16.103 4 13.097 4 10zm8-10c5.523 0 10 4.477 10 10 0 3.902-2.484 7.396-4.774 9.813a31.433 31.433 0 0 1-4.254 3.726 18.887 18.887 0 0 1-.384.27l-.023.016-.007.005-.003.002L12 23c-.555.832-.556.831-.556.831l-.002-.001-.007-.005-.023-.015a28.518 28.518 0 0 1-1.441-1.074 31.428 31.428 0 0 1-3.197-2.923C4.484 17.396 2 13.902 2 10 2 4.477 6.477 0 12 0zm0 23l-.555.832a1 1 0 0 0 1.11 0L12 23zM10.586 8.586a2 2 0 1 1 2.828 2.828 2 2 0 0 1-2.828-2.828zm4.242-1.414a4 4 0 1 0-5.656 5.656 4 4 0 0 0 5.656-5.656z"
     ></path>
  </symbol>
  <symbol id="icon-menu" viewBox="0 0 24 24" fill="none" xmlns="http://www.w3.org/2000/svg">
    <g clip-path="url(#clip0)">
      <path fill-rule="evenodd" clip-rule="evenodd" d="M4.097 4.097A2.4 2.4 0 1 0 .703.703a2.4 2.4 0 0 0 3.394 3.394zM0 6.4h4.8V24H0V6.4zm17.6 0c-2.971 0-4.128 1.6-4.856 3.2l.056-3.2H8.05C8.125 8 8 24 8 24h4.8v-9.352c0-.496.03-.998.166-1.355.4-.999 1.612-2.035 3.14-2.035 1.995 0 3.094 1.542 3.094 3.782V24H24v-9.603C24 9.27 21.211 6.4 17.6 6.4z"
       ></path>
    </g>
    <defs>
      <clipPath id="clip0">
        <path d="M0 0h24v24H0z"></path>
      </clipPath>
    </defs>
  </symbol>
  <symbol id="icon-social-linkedin" viewBox="0 0 24 24" fill="none" xmlns="http://www.w3.org/2000/svg">
    <path fill-rule="evenodd" clip-rule="evenodd" d="M2 6a1 1 0 0 1 1-1h18a1 1 0 1 1 0 2H3a1 1 0 0 1-1-1zm0 6a1 1 0 0 1 1-1h18a1 1 0 1 1 0 2H3a1 1 0 0 1-1-1zm1 5a1 1 0 1 0 0 2h18a1 1 0 1 0 0-2H3z"></path>
  </symbol>
  <symbol id="icon-social-vimeo" viewBox="0 0 24 24" fill="none" xmlns="http://www.w3.org/2000/svg">
    <path d="M23.88 6.54c-1.341 7.576-8.835 13.99-11.088 15.459-2.255 1.462-4.31-.59-5.055-2.14C6.883 18.086 4.326 8.493 3.654 7.7c-.672-.794-2.68.795-2.68.795L0 7.215s4.083-4.889 7.188-5.5c3.292-.649 3.29 5.07 4.082 8.246.764 3.072 1.28 4.829 1.95 4.829.668 0 1.95-1.712 3.349-4.338 1.404-2.628-.06-4.95-2.8-3.3C14.864.553 25.218-1.032 23.88 6.54z"
     ></path>
  </symbol>
</defs>

</svg>
